<?xml version="1.0" encoding="utf-8"?>
<!-- Svg Vector Icons : http://www.onlinewebfonts.com/icon -->
<!DOCTYPE svg PUBLIC "-//W3C//DTD SVG 1.1//EN" "http://www.w3.org/Graphics/SVG/1.1/DTD/svg11.dtd">
<svg version="1.1" xmlns="http://www.w3.org/2000/svg" xmlns:xlink="http://www.w3.org/1999/xlink" x="0px" y="0px" viewBox="0 0 256 256" enable-background="new 0 0 256 256" xml:space="preserve">
<metadata> Svg Vector Icons : http://www.onlinewebfonts.com/icon </metadata>
<g> <path fill="#64648C" d="M238.9,116.8L27.7,17.4c-6.2-2.9-13.6-0.3-16.5,6c-1.2,2.6-1.5,5.5-0.8,8.3L34.5,128l-24.1,96.4 c-1.7,6.6,2.3,13.4,9,15.1c2.8,0.7,5.8,0.4,8.4-0.8l211.1-99.4c6.2-2.9,8.9-10.3,6-16.5C243.6,120.1,241.5,118,238.9,116.8 L238.9,116.8z M40.8,205l13.5-54.2l79.8-22.8l-79.8-22.8L40.8,51l163.6,77L40.8,205z"/></g>
</svg>